{
   "accessors":[
      {
         "bufferView":0,
         "componentType":5126,
         "count":3074,
         "max":[
            0.9978801608085632,
            0.9999374747276306,
            0.999092161655426
         ],
         "min":[
            -0.9999937415122986,
            -0.9994049668312073,
            -0.9999921917915344
         ],
         "type":"VEC3"
      },
      {
         "bufferView":1,
         "componentType":5126,
         "count":3074,
         "type":"VEC3"
      },
      {
         "bufferView":2,
         "componentType":5121,
         "count":3074,
         "normalized":true,
         "type":"VEC4"
      },
      {
         "bufferView":3,
         "componentType":5125,
         "count":10,
         "type":"SCALAR"
      },
      {
         "bufferView":4,
         "componentType":5125,
         "count":3074,
         "type":"VEC2"
      },
      {
         "bufferView":5,
         "componentType":5125,
         "count":9,
         "type":"VEC4"
      },
      {
         "bufferView":6,
         "componentType":5125,
         "count":10,
         "type":"VEC2"
      },
      {
         "bufferView":7,
         "componentType":5125,
         "count":18,
         "type":"VEC4"
      },
      {
         "bufferView":8,
         "componentType":5125,
         "count":9,
         "type":"VEC2"
      },
      {
         "bufferView":9,
         "componentType":5123,
         "count":3074,
         "type":"SCALAR"
      },
      {
         "bufferView":10,
         "componentType":5125,
         "count":3074,
         "type":"SCALAR"
      },
      {
         "bufferView":11,
         "componentType":5121,
         "count":3074,
         "type":"SCALAR"
      }
   ],
   "asset":{
      "extensions":{
         "OPF_asset_version":{
            "version":"1.0"
         }
      },
      "generator":"Pix4D",
      "version":"2.0"
   },
   "bufferViews":[
      {
         "buffer":0,
         "byteLength":36888,
         "target":34962
      },
      {
         "buffer":1,
         "byteLength":36888,
         "target":34962
      },
      {
         "buffer":2,
         "byteLength":12296,
         "target":34962
      },
      {
         "buffer":3,
         "byteLength":40,
         "target":34962
      },
      {
         "buffer":4,
         "byteLength":24592,
         "target":34962
      },
      {
         "buffer":5,
         "byteLength":144,
         "target":34962
      },
      {
         "buffer":5,
         "byteLength":80,
         "byteOffset":144,
         "target":34962
      },
      {
         "buffer":5,
         "byteLength":288,
         "byteOffset":296,
         "target":34962
      },
      {
         "buffer":5,
         "byteLength":72,
         "byteOffset":224,
         "target":34962
      },
      {
         "buffer":6,
         "byteLength":6148,
         "target":34962
      },
      {
         "buffer":7,
         "byteLength":12296,
         "target":34962
      },
      {
         "buffer":8,
         "byteLength":3074,
         "target":34962
      }
   ],
   "buffers":[
      {
         "byteLength":36888,
         "uri":"positions.bin"
      },
      {
         "byteLength":36888,
         "uri":"normals.bin"
      },
      {
         "byteLength":12296,
         "uri":"colors.bin"
      },
      {
         "byteLength":40,
         "uri":"matchCameraIds.bin"
      },
      {
         "byteLength":24592,
         "uri":"matchPointIndexRanges.bin"
      },
      {
         "byteLength":584,
         "uri":"partitioning.bin"
      },
      {
         "byteLength":6148,
         "uri":"classes.bin"
      },
      {
         "byteLength":12296,
         "uri":"tags.bin"
      },
      {
         "byteLength":3074,
         "uri":"flags.bin"
      }
   ],
   "extensionsRequired":[
      "KHR_materials_unlit"
   ],
   "extensionsUsed":[
      "KHR_materials_unlit",
      "OPF_asset_version",
      "OPF_mesh_primitive_custom_attributes",
      "OPF_mesh_primitive_matches",
      "OPF_mesh_primitive_partitioning"
   ],
   "materials":[
      {
         "extensions":{
            "KHR_materials_unlit":{

            }
         }
      }
   ],
   "meshes":[
      {
         "primitives":[
            {
               "attributes":{
                  "COLOR_0":2,
                  "NORMAL":1,
                  "POSITION":0
               },
               "extensions":{
                  "OPF_mesh_primitive_custom_attributes":{
                     "attributes":{
                        "class":9,
                        "flag":11,
                        "tag":10
                     }
                  },
                  "OPF_mesh_primitive_matches":{
                     "cameraIds":3,
                     "cameraUids":[
                        0,
                        1,
                        2,
                        3
                     ],
                     "pointIndexRanges":4
                  },
                  "OPF_mesh_primitive_partitioning":{
                     "boundingBox":{
                        "max":[
                           1.0,
                           1.0,
                           1.0
                        ],
                        "min":[
                           -1.0,
                           -1.0,
                           -1.0
                        ]
                     },
                     "childrenIndexing":6,
                     "nodeAttributes":{
                        "parent":8
                     },
                     "nodeIndices":5,
                     "nodeLevelIndexing":[
                        0,
                        1,
                        9
                     ],
                     "perNodeChunkIndexRanges":7
                  }
               },
               "material":0,
               "mode":0
            }
         ]
      }
   ],
   "nodes":[
      {
         "matrix":[
            1.0,
            0.0,
            0.0,
            0.0,
            0.0,
            0.0,
            -1.0,
            0.0,
            0.0,
            1.0,
            0.0,
            0.0,
            0.0,
            0.0,
            0.0,
            1.0
         ],
         "mesh":0
      }
   ],
   "scene":0,
   "scenes":[
      {
         "nodes":[
            0
         ]
      }
   ]
}
