<svg width="1060" height="377" viewBox="0 0 1060 377" fill="none" xmlns="http://www.w3.org/2000/svg">
<path d="M356.954 148.5H325.139V222H331.334V197.115H356.954C372.599 197.115 381.944 187.14 381.944 172.86C381.944 158.58 372.599 148.5 356.954 148.5ZM356.744 191.235H331.334V154.38H356.744C368.924 154.38 375.749 161.835 375.749 172.86C375.749 183.78 368.924 191.235 356.744 191.235Z" fill="white"/>
<path d="M395.891 222H402.086V148.5H395.891V222Z" fill="white"/>
<path d="M448.484 184.41L473.684 148.5H466.229L456.149 163.095L444.494 179.79L432.944 163.095L422.759 148.5H415.304L440.399 184.41L413.519 222H420.974L444.389 189.03L456.989 206.775L467.909 222H475.469L448.484 184.41Z" fill="white"/>
<path d="M539.761 199.74H530.521V148.5H523.381L479.386 199.635L480.121 205.725H524.326V222H530.521V205.725H539.761V199.74ZM524.326 156.165V199.845H486.631L524.326 156.165Z" fill="white"/>
<path d="M579.927 148.5H554.622V222H579.927C601.977 222 617.202 207.09 617.202 185.25C617.202 163.41 601.977 148.5 579.927 148.5ZM579.927 216.015H560.817V154.485H579.927C598.197 154.485 610.902 167.085 610.902 185.25C610.902 203.415 598.197 216.015 579.927 216.015Z" fill="white"/>
<path d="M653.856 168.975C637.161 168.975 625.926 180 625.926 196.17C625.926 212.865 637.161 223.26 655.326 223.26C664.461 223.26 672.756 220.215 678.636 214.755L670.026 205.515C666.456 208.35 661.206 209.925 656.166 209.925C648.606 209.925 643.671 206.25 642.726 201H680.841C683.886 181.89 673.176 168.975 653.856 168.975ZM654.381 181.995C661.101 181.995 665.301 185.565 665.721 191.55H642.831C643.461 185.46 647.766 181.995 654.381 181.995Z" fill="white"/>
<path d="M722.517 168.975C715.587 168.975 709.707 171.6 705.822 176.22L704.772 170.13H690.492V222H706.977V194.7C706.977 187.77 711.282 182.94 717.687 182.94C723.567 182.94 727.137 186.93 727.137 193.65V222H743.622V192.705C743.622 177.795 735.327 168.975 722.517 168.975Z" fill="white"/>
<path d="M798.555 213.495C805.275 209.295 809.16 202.575 809.16 194.805C809.16 189.135 807.48 184.62 803.91 180.525L810.84 172.44L798.765 163.725L792.675 171.285C789.105 169.605 785.115 168.765 780.915 168.765C764.22 168.765 752.46 179.58 752.46 194.805C752.46 210.765 763.695 221.055 781.02 221.055C788.475 221.055 792.57 224.1 792.57 229.35C792.57 234.495 787.845 237.96 780.81 237.96C773.04 237.96 768.63 234.075 768.945 227.145H753.09C751.62 241.845 762.855 251.82 780.81 251.82C798.24 251.82 809.58 243.21 809.58 229.98C809.58 222.525 805.59 216.645 798.555 213.495ZM780.915 207.09C773.67 207.09 768.735 202.155 768.735 194.805C768.735 187.455 773.565 182.625 780.915 182.625C788.265 182.625 793.095 187.455 793.095 194.805C793.095 202.155 788.265 207.09 780.915 207.09Z" fill="white"/>
<path d="M828.192 164.985C833.862 164.985 837.852 161.31 837.852 156.06C837.852 150.81 833.862 147.03 828.192 147.03C822.522 147.03 818.532 150.81 818.532 156.06C818.532 161.31 822.522 164.985 828.192 164.985ZM819.897 222H836.382V170.13H819.897V222Z" fill="white"/>
<path d="M880.838 168.975C873.908 168.975 868.028 171.6 864.143 176.22L863.093 170.13H848.813V222H865.298V194.7C865.298 187.77 869.603 182.94 876.008 182.94C881.888 182.94 885.458 186.93 885.458 193.65V222H901.943V192.705C901.943 177.795 893.648 168.975 880.838 168.975Z" fill="white"/>
<path d="M938.71 168.975C922.015 168.975 910.78 180 910.78 196.17C910.78 212.865 922.015 223.26 940.18 223.26C949.315 223.26 957.61 220.215 963.49 214.755L954.88 205.515C951.31 208.35 946.06 209.925 941.02 209.925C933.46 209.925 928.525 206.25 927.58 201H965.695C968.74 181.89 958.03 168.975 938.71 168.975ZM939.235 181.995C945.955 181.995 950.155 185.565 950.575 191.55H927.685C928.315 185.46 932.62 181.995 939.235 181.995Z" fill="white"/>
<path d="M253.246 157.182C253.246 153.419 252.493 150.409 250.985 147.399C249.478 144.389 247.217 142.131 244.202 140.626L182.399 106.01L177.123 103L171.847 106.01L110.044 140.626C107.783 142.131 104.768 145.141 103.261 147.399C101.754 150.409 101 153.419 101 157.182V221.899C101 228.672 104.015 235.444 110.044 239.207L131.148 252V218.889C131.148 215.879 131.901 213.621 133.409 210.611C134.916 208.354 137.177 206.096 139.438 204.591L171.847 186.53L177.123 183.52L180.138 185.025L183.153 186.53L215.562 204.591C217.823 206.096 220.084 207.601 221.591 210.611C223.099 212.869 223.852 215.879 223.852 218.136V251.247L244.956 238.455C250.985 234.692 254 227.919 254 221.146L253.246 157.182Z" fill="white"/>
<path d="M209.75 257C211.25 256.25 212 254.75 212 253.25V219.5C212 218.75 212 218 211.25 217.25C211.25 216.5 210.5 215.75 209.75 215.75L177.5 197L145.25 215C144.5 215 143.75 215.75 143.75 216.5C143.75 217.25 143 218 143 218.75V252.5C143 254 143.75 255.5 145.25 256.25L177.5 275L209.75 257Z" fill="url(#paint0_linear)"/>
<defs>
<linearGradient id="paint0_linear" x1="177.5" y1="275.985" x2="177.5" y2="196.976" gradientUnits="userSpaceOnUse">
<stop stop-color="#8F9FB1"/>
<stop offset="1" stop-color="#D6DAE0"/>
</linearGradient>
</defs>
</svg>
