<svg width="18" height="18" viewBox="0 0 18 18" fill="none" xmlns="http://www.w3.org/2000/svg">
<path d="M9.375 8.25H8.7825L8.5725 8.0475C9.3075 7.1925 9.75 6.0825 9.75 4.875C9.75 2.1825 7.5675 0 4.875 0C2.1825 0 0 2.1825 0 4.875C0 7.5675 2.1825 9.75 4.875 9.75C6.0825 9.75 7.1925 9.3075 8.0475 8.5725L8.25 8.7825V9.375L12 13.1175L13.1175 12L9.375 8.25ZM4.875 8.25C3.0075 8.25 1.5 6.7425 1.5 4.875C1.5 3.0075 3.0075 1.5 4.875 1.5C6.7425 1.5 8.25 3.0075 8.25 4.875C8.25 6.7425 6.7425 8.25 4.875 8.25Z" transform="translate(2.25 2.25)" fill="#757575"/>
</svg>
